<svg data-v-423bf9ae="" xmlns="http://www.w3.org/2000/svg" viewBox="0 0 293 90" class="iconLeft"><!----><!----><!----><g data-v-423bf9ae="" id="6a4c097f-9cef-45d5-bf4f-5c9aa4bc380a" fill="black" transform="matrix(6.191950123131256,0,0,6.191950123131256,159.79710088302704,9.117645418840063)"><path d="M5.31 10.64C7.07 10.64 8.30 9.94 9.13 9.24L9.13 5.85L5.45 5.85L5.45 6.30L8.64 6.30L8.64 9.07C7.99 9.60 6.92 10.19 5.33 10.19C2.46 10.19 1.20 8.30 1.20 5.67C1.20 3.09 2.55 1.37 5.11 1.37C6.89 1.37 7.88 2.10 8.44 3.21L8.92 3.05C8.37 1.89 7.32 0.95 5.11 0.95C2.21 0.95 0.70 2.90 0.70 5.67C0.70 8.64 2.20 10.64 5.31 10.64ZM14.22 10.64C15.88 10.64 16.44 9.97 16.93 8.99L16.48 8.85C16.03 9.74 15.57 10.22 14.24 10.22C12.49 10.22 11.75 8.86 11.75 7.04L11.75 6.93L17.01 6.93C17.01 6.89 17.02 6.57 17.02 6.52C17.02 4.68 16.45 3.14 14.21 3.14C12.47 3.14 11.23 4.21 11.23 6.87C11.23 9.17 12.17 10.64 14.22 10.64ZM14.21 3.54C15.83 3.54 16.51 4.62 16.51 6.37L16.51 6.51L11.75 6.51C11.79 4.33 12.89 3.54 14.21 3.54ZM18.35 3.67L19.35 3.67L19.35 9.42C19.35 10.08 19.57 10.64 20.55 10.64C20.97 10.64 21.11 10.63 21.41 10.61L21.41 10.18L20.72 10.18C20.06 10.18 19.82 10.00 19.82 9.32L19.82 3.67L21.36 3.67L21.36 3.28L19.82 3.28L19.82 1.23L19.35 1.23L19.35 3.28L18.35 3.28Z"></path></g><!----><g data-v-423bf9ae="" id="ec363898-9174-492d-b2e6-06f76d4e4cea" transform="matrix(1.4413146365923606,0,0,1.4413146365923606,0.9342681703819693,-26.291860511649986)" stroke="none" fill="black"><path d="M97.938 68.771h-6.316V20.81a2.022 2.022 0 0 0-2.021-2.021H10.399a2.022 2.022 0 0 0-2.021 2.021v47.961H2.062A2.062 2.062 0 0 0 0 70.832v2.084c0 .103.008.204.022.306.527 3.521 3.348 7.447 7.159 7.922.083.01.169.017.252.017l84.51.071h.003c4.404 0 7.604-4.197 8.041-8.085.009-.075.013-.152.013-.23v-2.084a2.062 2.062 0 0 0-2.062-2.062zM12.42 22.831h75.16V68.77H59.985c-.133 0-.262.016-.386.04H41.16a2.07 2.07 0 0 0-.396-.04H12.42V22.831zm79.528 54.276l-84.362-.071c-1.461-.261-3.024-2.16-3.434-4.143h35.086c.702 1.246 2.017 2.085 3.519 2.085H57.99c1.502 0 2.816-.839 3.52-2.085h34.35c-.322 2.033-2.006 4.214-3.912 4.214zM38.84 37.498a2.083 2.083 0 0 0-2.947 0l-8.689 8.689a2.085 2.085 0 0 0 0 2.948l8.689 8.688a2.08 2.08 0 0 0 2.948 0 2.083 2.083 0 0 0 0-2.947l-7.216-7.215 7.216-7.216a2.084 2.084 0 0 0-.001-2.947zm20.521 20.325a2.081 2.081 0 0 0 2.948 0l8.688-8.688a2.085 2.085 0 0 0 0-2.948l-8.688-8.689a2.083 2.083 0 1 0-2.947 2.947l7.215 7.216-7.215 7.215a2.083 2.083 0 0 0-.001 2.947zm-17.568 4.452a2.085 2.085 0 0 0 2.797-.932l12.506-25.011a2.083 2.083 0 0 0-.933-2.796 2.087 2.087 0 0 0-2.797.932L40.861 59.479a2.083 2.083 0 0 0 .932 2.796z"></path></g><!----></svg>