<svg data-v-fde0c5aa="" xmlns="http://www.w3.org/2000/svg" viewBox="0 0 300 300" class="font"><!----><defs data-v-fde0c5aa=""><!----></defs><rect data-v-fde0c5aa="" fill="#DEE5F3" x="0" y="0" width="300px" height="300px" class="logo-background-square"></rect><defs data-v-fde0c5aa=""><linearGradient data-v-fde0c5aa="" gradientTransform="rotate(25)" id="2097d4e8-cf02-4a89-8dfd-8e06de1fc0e6" x1="0%" y1="0%" x2="100%" y2="0%"><stop data-v-fde0c5aa="" offset="0%" stop-color="#288B58" stop-opacity="1"></stop><stop data-v-fde0c5aa="" offset="100%" stop-color="#1522F1" stop-opacity="1"></stop></linearGradient></defs><g data-v-fde0c5aa="" id="7cfb537a-023f-4987-a37c-459562dc8f71" fill="url(#2097d4e8-cf02-4a89-8dfd-8e06de1fc0e6)" transform="matrix(10.622887963570468,0,0,10.622887963570468,32.56397855213537,88.44036090795325)"><path d="M5.31 10.64C7.07 10.64 8.30 9.94 9.13 9.24L9.13 5.85L5.45 5.85L5.45 6.30L8.64 6.30L8.64 9.07C7.99 9.60 6.92 10.19 5.33 10.19C2.46 10.19 1.20 8.30 1.20 5.67C1.20 3.09 2.55 1.37 5.11 1.37C6.89 1.37 7.88 2.10 8.44 3.21L8.92 3.05C8.37 1.89 7.32 0.95 5.11 0.95C2.21 0.95 0.70 2.90 0.70 5.67C0.70 8.64 2.20 10.64 5.31 10.64ZM14.22 10.64C15.88 10.64 16.44 9.97 16.93 8.99L16.48 8.85C16.03 9.74 15.57 10.22 14.24 10.22C12.49 10.22 11.75 8.86 11.75 7.04L11.75 6.93L17.01 6.93C17.01 6.89 17.02 6.57 17.02 6.52C17.02 4.68 16.45 3.14 14.21 3.14C12.47 3.14 11.23 4.21 11.23 6.87C11.23 9.17 12.17 10.64 14.22 10.64ZM14.21 3.54C15.83 3.54 16.51 4.62 16.51 6.37L16.51 6.51L11.75 6.51C11.79 4.33 12.89 3.54 14.21 3.54ZM18.35 3.67L19.35 3.67L19.35 9.42C19.35 10.08 19.57 10.64 20.55 10.64C20.97 10.64 21.11 10.63 21.41 10.61L21.41 10.18L20.72 10.18C20.06 10.18 19.82 10.00 19.82 9.32L19.82 3.67L21.36 3.67L21.36 3.28L19.82 3.28L19.82 1.23L19.35 1.23L19.35 3.28L18.35 3.28Z"></path></g><!----><!----></svg>